<?xml version="1.0" standalone="no"?>
<!DOCTYPE svg PUBLIC "-//W3C//DTD SVG 1.1//EN" 
  "http://www.w3.org/Graphics/SVG/1.1/DTD/svg11.dtd">
<svg version="1.1" xmlns="http://www.w3.org/2000/svg" xmlns:xlink="http://www.w3.org/1999/xlink" x="0px" y="0px"
               xml:space="preserve"
   width="744.09448819"
   height="1052.3622047"
   id="svg2">
  <defs
     id="defs4" />
  <g
     id="layer1">
    <g
       style="font-size:144px;font-style:normal;font-variant:normal;font-weight:bold;font-stretch:normal;line-height:125%;letter-spacing:0px;word-spacing:0px;fill:none;fill-opacity:1;stroke:#ffffff;font-family:MS Mincho;-inkscape-font-specification:MS Mincho Bold"
       id="flowRoot3026">
      <path
         d="m 81.437988,281.57861 0,6.12159 -29.566406,0 0,-6.12159 5.409668,0 c 2.276356,10e-6 3.414539,-1.00194 3.414551,-3.00586 l 0,-78.86865 c -1.2e-5,-2.00381 -1.138195,-3.00576 -3.414551,-3.00586 l -4.855957,0 0,-6.12158 60.033687,0 7.03565,22.06055 -5.0625,1.70947 c -6.40436,-11.76554 -14.05669,-17.64834 -22.957032,-17.64844 l -15.442383,0 c -2.279322,1e-4 -3.41897,1.00205 -3.418945,3.00586 l 0,33.89063 16.655273,0 c 5.953078,5e-5 8.929638,-3.02338 8.929687,-9.07032 l 0,-4.16601 6.40283,0 0,34.80029 -6.40283,0 0,-3.6123 c -4.9e-5,-7.88668 -2.976609,-11.83003 -8.929687,-11.83008 l -16.655273,0 0,38.85644 c -2.5e-5,2.00392 1.139623,3.00587 3.418945,3.00586 z"
         style=""
         id="path3035" />
      <path
         d="m 142.79883,190.57666 c 5.97067,1e-4 11.71286,-1.4706 17.22656,-4.41211 l 3.07178,0 0,92.4082 c -4e-5,2.00392 1.13814,3.00587 3.41455,3.00586 l 14.23389,0 0,6.12159 -46.11182,0 0,-6.12159 14.22949,0 c 2.27927,10e-6 3.41892,-1.00194 3.41895,-3.00586 l 0,-78.86865 c -3e-5,-2.00381 -1.13968,-3.00576 -3.41895,-3.00586 l -13.68017,0 0,-6.12158 z"
         style=""
         id="path3037" />
      <path
         d="m 236.57373,192.09717 c 1.77535,1.77548 2.66304,3.57578 2.66309,5.40088 -5e-5,2.20907 -0.88774,4.20126 -2.66309,5.97656 -1.73442,1.73446 -3.7515,2.60165 -6.05127,2.60156 -2.31742,9e-5 -4.34329,-0.8671 -6.07764,-2.60156 -1.76077,-1.76065 -2.64114,-3.75284 -2.64111,-5.97656 -3e-5,-1.83975 0.88034,-3.64004 2.64111,-5.40088 1.74899,-1.74893 3.77487,-2.62344 6.07764,-2.62354 2.28512,10e-5 4.30221,0.87461 6.05127,2.62354 z m -12.01025,40.69775 c -3e-5,-2.37006 -1.13968,-3.55511 -3.41895,-3.55517 l -13.12646,0 0,-6.12159 7.06201,0 c 6.01755,7e-5 11.78463,-1.28753 17.30127,-3.86279 l 2.99707,0 0,59.31738 c -4e-5,2.00392 1.13814,3.00587 3.41455,3.00586 l 13.13086,0 0,6.12159 -43.90576,0 0,-6.12159 13.12646,0 c 2.27927,10e-6 3.41892,-1.00194 3.41895,-3.00586 z"
         style=""
         id="path3039" />
      <path
         d="m 288.35449,297.87354 c -2e-5,2.37303 1.13963,3.55955 3.41895,3.55957 l 5.40527,0 0,6.12158 -28.46338,0 0,-6.12158 5.40967,0 c 2.27636,-2e-5 3.41454,-1.18654 3.41455,-3.55957 l 0,-65.07862 c -1e-5,-2.37006 -1.13819,-3.55511 -3.41455,-3.55517 l -4.85596,0 0,-6.12159 6.5083,0 c 3.03222,7e-5 6.20214,-0.91985 9.50977,-2.75976 l 3.06738,0 0,14.89306 c 4.30076,-8.0888 10.40329,-12.13323 18.30762,-12.1333 6.33101,7e-5 12.1435,2.64558 17.4375,7.93653 5.58392,5.21197 8.37591,14.06547 8.37598,26.56054 -7e-5,10.30081 -2.79938,18.06447 -8.39795,23.29102 -4.52935,4.5293 -10.33452,6.79395 -17.41553,6.79395 -9.01761,0 -15.12014,-3.30908 -18.30762,-9.92725 l 0,20.10059 z m 0,-29.47413 c 4.04001,8.41701 9.59177,12.6255 16.65528,12.62549 4.31538,10e-6 7.727,-1.25389 10.23486,-3.76172 3.54194,-3.18748 5.31293,-9.73679 5.31299,-19.64795 -6e-5,-10.99507 -2.2442,-18.56391 -6.73242,-22.70654 -2.67778,-2.67768 -5.80083,-4.01654 -9.36915,-4.0166 -6.31936,6e-5 -11.68655,4.58355 -16.10156,13.75049 z"
         style=""
         id="path3041" />
      <path
         d="m 360.63574,297.87354 c -2e-5,2.37303 1.13963,3.55955 3.41895,3.55957 l 5.40527,0 0,6.12158 -28.46338,0 0,-6.12158 5.40967,0 c 2.27636,-2e-5 3.41454,-1.18654 3.41455,-3.55957 l 0,-65.07862 c -1e-5,-2.37006 -1.13819,-3.55511 -3.41455,-3.55517 l -4.85596,0 0,-6.12159 6.5083,0 c 3.03222,7e-5 6.20214,-0.91985 9.50977,-2.75976 l 3.06738,0 0,14.89306 c 4.30076,-8.0888 10.40329,-12.13323 18.30762,-12.1333 6.33101,7e-5 12.1435,2.64558 17.4375,7.93653 5.58392,5.21197 8.37591,14.06547 8.37598,26.56054 -7e-5,10.30081 -2.79938,18.06447 -8.39795,23.29102 -4.52935,4.5293 -10.33452,6.79395 -17.41553,6.79395 -9.01761,0 -15.12014,-3.30908 -18.30762,-9.92725 l 0,20.10059 z m 0,-29.47413 c 4.04001,8.41701 9.59177,12.6255 16.65528,12.62549 4.31538,10e-6 7.727,-1.25389 10.23486,-3.76172 3.54194,-3.18748 5.31293,-9.73679 5.31299,-19.64795 -6e-5,-10.99507 -2.2442,-18.56391 -6.73242,-22.70654 -2.67778,-2.67768 -5.80083,-4.01654 -9.36915,-4.0166 -6.31936,6e-5 -11.68655,4.58355 -16.10156,13.75049 z"
         style=""
         id="path3043" />
      <path
         d="m 453.41748,192.09717 c 1.77535,1.77548 2.66304,3.57578 2.66309,5.40088 -5e-5,2.20907 -0.88774,4.20126 -2.66309,5.97656 -1.73442,1.73446 -3.7515,2.60165 -6.05127,2.60156 -2.31742,9e-5 -4.34329,-0.8671 -6.07764,-2.60156 -1.76077,-1.76065 -2.64114,-3.75284 -2.64111,-5.97656 -3e-5,-1.83975 0.88034,-3.64004 2.64111,-5.40088 1.74899,-1.74893 3.77487,-2.62344 6.07764,-2.62354 2.28512,10e-5 4.30221,0.87461 6.05127,2.62354 z m -12.01025,40.69775 c -3e-5,-2.37006 -1.13968,-3.55511 -3.41895,-3.55517 l -13.12646,0 0,-6.12159 7.06201,0 c 6.01755,7e-5 11.78463,-1.28753 17.30127,-3.86279 l 2.99707,0 0,59.31738 c -4e-5,2.00392 1.13814,3.00587 3.41455,3.00586 l 13.13086,0 0,6.12159 -43.90576,0 0,-6.12159 13.12646,0 c 2.27927,10e-6 3.41892,-1.00194 3.41895,-3.00586 z"
         style=""
         id="path3045" />
      <path
         d="m 518.43457,273.05762 c -4e-5,4.57618 2.61031,6.86426 7.83105,6.86425 3.94918,10e-6 6.70308,-0.77928 8.26172,-2.33789 2.35542,-2.35545 4.20258,-6.35593 5.54151,-12.00146 l 5.39209,2.4126 c -1.19538,6.80568 -3.68268,11.71876 -7.46192,14.73925 -3.36333,3.31056 -7.8267,4.96583 -13.39013,4.96583 -5.62504,0 -9.67093,-1.2334 -12.1377,-3.7002 -3.2344,-2.833 -4.85159,-6.84813 -4.85156,-12.04541 l 0,-42.71484 -16.54541,0 0,-6.12159 4.30664,0 c 10.73435,7e-5 16.10153,-5.59856 16.10156,-16.79589 l 0,-4.71534 6.95215,0 0,21.51123 22.06055,0 0,6.12159 -22.06055,0 z"
         style=""
         id="path3047" />
      <path
         d="m 593.59424,269.44531 -1.16016,0 11.74219,-35.76709 c 0.36323,-2.95892 -0.41021,-4.43841 -2.32031,-4.43847 l -4.85596,0 0,-6.12159 26.25732,0 0,6.12159 -4.85595,0 c -2.3028,6e-5 -4.40485,1.74322 -6.30616,5.22949 l -18.61962,54.14502 c -2.31449,7.75487 -4.85746,13.01659 -7.62891,15.78515 -2.10062,2.1035 -5.22073,3.15526 -9.36035,3.15528 -3.41897,-2e-5 -5.81252,-0.6841 -7.18067,-2.05225 -1.39161,-1.39161 -2.08741,-3.01466 -2.0874,-4.86914 -10e-6,-1.83985 0.69579,-3.45704 2.0874,-4.85156 1.01366,-1.01368 2.48729,-1.52051 4.4209,-1.52051 2.41111,0 4.12351,0.76025 5.13721,2.28076 0.79099,1.05468 1.46921,1.58203 2.03467,1.58203 0.79978,0 1.6113,-0.82471 2.43457,-2.47412 1.78708,-3.92871 3.40133,-8.67626 4.84277,-14.24267 l -18.62842,-48.01905 c -1.23048,-2.76556 -2.96192,-4.14837 -5.19433,-4.14843 l -3.75293,0 0,-6.12159 26.25732,0 0,6.12159 -3.75293,0 c -2.27932,6e-5 -3.0762,1.23492 -2.39062,3.70459 z"
         style=""
         id="path3049" />
    </g>
  </g>
</svg>